<svg xmlns="http://www.w3.org/2000/svg" width="40" height="40" viewBox="0 0 40 40" fill="none">
<path d="M39.4014 24.8385C36.7298 35.5529 25.8768 42.0735 15.16 39.4016C4.44764 36.7304 -2.07368 25.8779 0.599102 15.1641C3.26939 4.4485 14.1224 -2.07275 24.8361 0.598497C35.5522 3.26975 42.0729 14.1235 39.4014 24.8385Z" fill="#F7931A"/>
<path d="M28.8184 17.1504C29.2166 14.4891 27.1903 13.0585 24.4197 12.1041L25.3184 8.49913L23.1241 7.95226L22.2491 11.4623C21.6722 11.3185 21.0797 11.1829 20.4909 11.0485L21.3722 7.51538L19.1791 6.96851L18.2797 10.5723C17.8022 10.4635 17.3334 10.356 16.8784 10.2429L16.8809 10.2316L13.8547 9.47601L13.2709 11.8198C13.2709 11.8198 14.8991 12.1929 14.8647 12.216C15.7534 12.4379 15.9141 13.026 15.8872 13.4923L14.8634 17.5991C14.9247 17.6148 15.0041 17.6373 15.0916 17.6723C15.0184 17.6541 14.9403 17.6341 14.8597 17.6148L13.4247 23.3679C13.3159 23.6379 13.0403 24.0429 12.4191 23.8891C12.4409 23.921 10.8241 23.491 10.8241 23.491L9.73468 26.0029L12.5903 26.7148C13.1216 26.8479 13.6422 26.9873 14.1547 27.1185L13.2466 30.7648L15.4384 31.3116L16.3378 27.7041C16.9366 27.8666 17.5178 28.0166 18.0866 28.1579L17.1903 31.7485L19.3847 32.2954L20.2928 28.656C24.0347 29.3641 26.8484 29.0785 28.0328 25.6941C28.9872 22.9691 27.9853 21.3973 26.0166 20.3723C27.4503 20.0416 28.5303 19.0985 28.8184 17.1504ZM23.8047 24.181C23.1266 26.906 18.5384 25.4329 17.0509 25.0635L18.2559 20.2329C19.7434 20.6041 24.5134 21.3391 23.8047 24.181ZM24.4834 17.111C23.8647 19.5898 20.0459 18.3304 18.8072 18.0216L19.8997 13.6404C21.1384 13.9491 25.1278 14.5254 24.4834 17.111Z" fill="white"/>
</svg>