<svg xmlns="http://www.w3.org/2000/svg" width="40" height="40" viewBox="0 0 40 40" fill="none">
  <path d="M20 40C31.0457 40 40 31.0457 40 20C40 8.9543 31.0457 0 20 0C8.9543 0 0 8.9543 0 20C0 31.0457 8.9543 40 20 40Z" fill="#008CE7"/>
  <path d="M23.8576 10.005H14.7626L14.0101 14.2138L22.2126 14.2263C26.2514 14.2263 27.4501 15.6925 27.4114 18.1263C27.3939 19.3738 26.8501 21.4838 26.6201 22.1638C25.9988 23.9888 24.7189 26.0663 19.9214 26.06L11.9489 26.055L11.1964 30.2688H20.2676C23.4664 30.2688 24.8288 29.895 26.2676 29.2313C29.4601 27.7588 31.3614 24.605 32.1251 20.4888C33.2576 14.3638 31.8451 10.005 23.8563 10.005H23.8576Z" fill="white"/>
  <path d="M19.7589 19.7475C20.0551 18.5162 20.1489 18.0225 20.1489 18.0225H10.8414C8.46138 18.0225 8.12138 19.5725 7.89513 20.51C7.59888 21.7362 7.50513 22.2362 7.50513 22.2362H16.8139C19.1926 22.2362 19.5326 20.6862 19.7589 19.7475Z" fill="white"/>
</svg>