<svg xmlns="http://www.w3.org/2000/svg" width="40" height="40" viewBox="0 0 40 40" fill="none">
  <path d="M20 40C31.0457 40 40 31.0457 40 20C40 8.9543 31.0457 0 20 0C8.9543 0 0 8.9543 0 20C0 31.0457 8.9543 40 20 40Z" fill="#008CE7"/>
  <path d="M23.8576 10.0049H14.7626L14.0101 14.2136L22.2126 14.2261C26.2514 14.2261 27.4501 15.6924 27.4114 18.1261C27.3939 19.3736 26.8501 21.4836 26.6201 22.1636C25.9988 23.9886 24.7189 26.0661 19.9214 26.0599L11.9489 26.0549L11.1964 30.2686H20.2676C23.4664 30.2686 24.8288 29.8949 26.2676 29.2311C29.4601 27.7586 31.3614 24.6049 32.1251 20.4886C33.2576 14.3636 31.8451 10.0049 23.8563 10.0049H23.8576Z" fill="white"/>
  <path d="M19.7589 19.7475C20.0551 18.5162 20.1489 18.0225 20.1489 18.0225H10.8414C8.46138 18.0225 8.12138 19.5725 7.89513 20.51C7.59888 21.7362 7.50513 22.2362 7.50513 22.2362H16.8139C19.1926 22.2362 19.5326 20.6862 19.7589 19.7475Z" fill="white"/>
</svg>