<svg xmlns="http://www.w3.org/2000/svg" width="40" height="40" viewBox="0 0 40 40" fill="none">
  <path d="M20 40C31.0457 40 40 31.0457 40 20C40 8.9543 31.0457 0 20 0C8.9543 0 0 8.9543 0 20C0 31.0457 8.9543 40 20 40Z" fill="#EDEFF0"/>
  <path d="M20.4251 5.4397L20.2204 6.11462V25.6975L20.4251 25.8957L29.7905 20.5225L20.4251 5.4397Z" fill="#343434"/>
  <path d="M20.4252 5.4397L11.0595 20.5225L20.4252 25.8957V16.3907V5.4397Z" fill="#8C8C8C"/>
  <path d="M20.4251 27.6167L20.3098 27.7533V34.729L20.4251 35.0559L29.7963 22.2463L20.4251 27.6167Z" fill="#3C3C3B"/>
  <path d="M20.4251 35.0559V27.6167L11.0594 22.2463L20.4251 35.0559Z" fill="#8C8C8C"/>
  <path d="M20.4251 25.8956L29.7905 20.5224L20.4251 16.3906V25.8956Z" fill="#141414"/>
  <path d="M11.0594 20.5224L20.4251 25.8956V16.3906L11.0594 20.5224Z" fill="#393939"/>
</svg>